{"title":"The.Man.With.One.Red.Shoe.1985.iNTERNAL.DVDRip.XviD-EXViDiNT","uid":7011964,"size":735534163,"categoryP":"video","categoryS":"movies","magnet":"?xt=urn:btih:75e784ecd7435d3e18b8fb593c274c81833dd7cf&amp;dn=The.Man.With.One.Red.Shoe.1985.iNTERNAL.DVDRip.XviD-EXViDiNT&amp;tr=udp%3A%2F%2Ftracker.openbittorrent.com%3A80&amp;tr=udp%3A%2F%2Fopen.demonii.com%3A1337&amp;tr=udp%3A%2F%2Ftracker.coppersurfer.tk%3A6969&amp;tr=udp%3A%2F%2Fexodus.desync.com%3A6969","seeders":4,"leechers":1,"uploader":"TvTeam","files":4,"time":1328500392,"description":". \n &lt;a href=&quot;\nhttp://www.torrenting.com&quot; rel=&quot;nofollow&quot; target=&quot;_NEW&quot;&gt;\nhttp://www.torrenting.com&lt;/a&gt;          :     Once &amp; For all ;)\n\n\n               www . Torrenting . Com \n\n(((((((((((((= Enjoy No RAR releases =))))))))))))))))))))\n\n\n...................................NFO:....................................\n\n.                                                                                                     \n       \n     \n     \n       \n       \n     \n     \n                                         \n                                         \n                EXVID                    \n                                         \n         \n                                         \n         Filled the Archives             \n                                         \n         \n                                         \n                With:                    \n                                         \n         \n                                         \n                                    \n     E240                           \n                                    \n     SP               (C) 2009      \n                                         \n     \n     \n     \n                                                                                  \n                                                                                   \n         The.Man.With.One.Red.Shoe.1985.iNTERNAL.DVDRip.XviD-EXViDiNT               \n                                                                                   \n                                                                                  \n     \n                                                                                               \nEXViD aims to iNTERNAL those releases which have been lost in the archives.\nEXViD aims to PRE non-internal releases which have poor sources and are likely skipped by others. &lt;a href=&quot;\nhttp://www.imdb.com/title/tt0089543/&quot; rel=&quot;nofollow&quot; target=&quot;_NEW&quot;&gt;\nhttp://www.imdb.com/title/tt0089543/&lt;/a&gt;\nSubtitles: BG, HR, DA, NL, EN, FI, FR, DE, EL, HU, IT, NO, ES, SV, TR\nDate: 2012.01\n\nDirector: Stan Dragoti\n\nGenres: Comedy | Thriller\n\nPlot:\nCooper, the deputy director of the CIA, wants to be the director. So, he tries to smear the\ndirector into resigning or being removed. The director, who knows that Cooper has been bugging\nhim, feeds him some false information--that there's a man who might be able to clear of the\ncharges against him will be arriving at the airport, so he sends his man, Brown to meet him.\nBrown was just suppose to make contact with anyone at the airport thus making Cooper believe that\nhe is the man who can help the director. Brown picks Richard cause he is wearing mismatched\nshoes, one of them being red. So Cooper sets up surveillance on Richard and sends his femme\nfatale, Maddy to come on to him and find out what he knows. While Maddy is playing, Richard\nactually falls for her.\n\nCast:\nTom Hanks\t...\tRichard Harlan Drew\nDabney Coleman\t...\tCooper\nLori Singer\t...\tMaddy\nCharles Durning\t...\tRoss\nCarrie Fisher\t...\tPaula\nEdward Herrmann\t...\tBrown\nJames Belushi\t...\tMorris\nIrving Metzman\t...\tVirdon\nTom Noonan\t...\tReese\nGerrit Graham\t...\tCarson\nDavid L. Lander\t...\tStemple\nRitch Brinkley\t...\tHulse\nFrank Hamilton\t...\tEdgar\nDortha Duckworth\t...\tNatalie\nDavid Ogden Stiers\t...\tThe Conductor\n\nStats:\nFormat                                   : AVI\nFormat/Info                              : Audio Video Interleave\nFile size                                : 701 MiB\nDuration                                 : 1h 28mn\nOverall bit rate mode                    : Variable\nOverall bit rate                         : 1 105 Kbps\n\nVideo\nID                                       : 0\nFormat                                   : MPEG-4 Visual\nFormat profile                           : Advanced Simple@L5\nFormat settings, BVOP                    : 2\nFormat settings, QPel                    : No\nFormat settings, GMC                     : No warppoints\nFormat settings, Matrix                  : Default (H.263)\nCodec ID                                 : XVID\nCodec ID/Hint                            : XviD\nDuration                                 : 1h 28mn\nBit rate                                 : 969 Kbps\nWidth                                    : 640 pixels\nHeight                                   : 336 pixels\nDisplay aspect ratio                     : 1.905\nFrame rate                               : 25.000 fps\nColor space                              : YUV\nChroma subsampling                       : 4:2:0\nBit depth                                : 8 bits\nScan type                                : Progressive\nCompression mode                         : Lossy\nBits/(Pixel*Frame)                       : 0.180\nStream size                              : 615 MiB (88%)\nWriting library                          : XviD 64\n\nAudio\nID                                       : 1\nFormat                                   : MPEG Audio\nFormat version                           : Version 1\nFormat profile                           : Layer 3\nCodec ID                                 : 55\nCodec ID/Hint                            : MP3\nDuration                                 : 1h 28mn\nBit rate mode                            : Variable\nBit rate                                 : 123 Kbps\nChannel(s)                               : 1 channel\nSampling rate                            : 48.0 KHz\nCompression mode                         : Lossy\nStream size                              : 78.4 MiB (11%)\nAlignment                                : Aligned on interleaves\nInterleave, duration                     : 24 ms (0.60 video frame)\nInterleave, preload duration             : 130 ms\nWriting library                          : LAME3.98.4UUUULAME3.\n\n\nRelease notes:\nEnjoy!\n\nLooking for:\n75TB+ Archives\nDUTCH/FLEMiSH Archives\n                                                                                                    \nGreets: CRBS EPiSODE FiCO FLS iLS KLASSiGER LiPSYNC MADE NODLABS RUNNER SPRiNTER      \n   \n\n                                                                    ASCII DONE BY XX^NFO 2oo9","torrent":{"xt":"urn:btih:75e784ecd7435d3e18b8fb593c274c81833dd7cf","amp;dn":"The.Man.With.One.Red.Shoe.1985.iNTERNAL.DVDRip.XviD-EXViDiNT","amp;tr":["udp%3A%2F%2Ftracker.openbittorrent.com%3A80","udp%3A%2F%2Fopen.demonii.com%3A1337","udp%3A%2F%2Ftracker.coppersurfer.tk%3A6969","udp%3A%2F%2Fexodus.desync.com%3A6969"],"infoHash":"75e784ecd7435d3e18b8fb593c274c81833dd7cf","infoHashBuffer":{"type":"Buffer","data":[117,231,132,236,215,67,93,62,24,184,251,89,60,39,76,129,131,61,215,207]},"announce":[],"urlList":[]}}